/* XPM */
static char *_dea721636c846f5f89f63ea72e8e3fafH4uGsWMAybGRO6t[] = {
/* columns rows colors chars-per-pixel */
"64 64 7 1 ",
"  c #C8D45D",
". c #14182E",
"X c #E64539",
"o c #AD2F45",
"O c #F0B541",
"+ c #FFEE83",
"@ c #F5FFE8",
/* pixels */
"                                                                ",
"                                                                ",
"                                                                ",
"                                                                ",
"                                                                ",
"                                                                ",
"                                                                ",
"                                                                ",
"                                                                ",
"                                                                ",
"                                                                ",
"                                                                ",
"        ........                                ........        ",
"        ........                                ........        ",
"        ........                                ........        ",
"        ........                                ........        ",
"    ....++++........................................++++....    ",
"    ....++++........................................++++....    ",
"    ....++++........................................++++....    ",
"    ....++++........................................++++....    ",
"    ....++++....oooooooooooooooooooooooooooooooo....++++....    ",
"    ....++++....oooooooooooooooooooooooooooooooo....++++....    ",
"    ....++++....oooooooooooooooooooooooooooooooo....++++....    ",
"    ....++++....oooooooooooooooooooooooooooooooo....++++....    ",
"    ....@@@@....XXXXXXXXXXXXXXXXXXXXXXXXXXXXXXXX....@@@@....    ",
"    ....@@@@....XXXXXXXXXXXXXXXXXXXXXXXXXXXXXXXX....@@@@....    ",
"    ....@@@@....XXXXXXXXXXXXXXXXXXXXXXXXXXXXXXXX....@@@@....    ",
"    ....@@@@....XXXXXXXXXXXXXXXXXXXXXXXXXXXXXXXX....@@@@....    ",
"    ....++++....oooooooooooooooooooooooooooooooo....++++....    ",
"    ....++++....oooooooooooooooooooooooooooooooo....++++....    ",
"    ....++++....oooooooooooooooooooooooooooooooo....++++....    ",
"    ....++++....oooooooooooooooooooooooooooooooo....++++....    ",
"    ....++++....oooooooo................oooooooo....++++....    ",
"    ....++++....oooooooo................oooooooo....++++....    ",
"    ....++++....oooooooo................oooooooo....++++....    ",
"    ....++++....oooooooo................oooooooo....++++....    ",
"    ....++++............@@@@@@@@@@@@@@@@............++++....    ",
"    ....++++............@@@@@@@@@@@@@@@@............++++....    ",
"    ....++++............@@@@@@@@@@@@@@@@............++++....    ",
"    ....++++............@@@@@@@@@@@@@@@@............++++....    ",
"    ....++++++++++++OOOO++++........++++OOOO++++++++++++....    ",
"    ....++++++++++++OOOO++++........++++OOOO++++++++++++....    ",
"    ....++++++++++++OOOO++++........++++OOOO++++++++++++....    ",
"    ....++++++++++++OOOO++++........++++OOOO++++++++++++....    ",
"    ....................++++........++++....................    ",
"    ....................++++........++++....................    ",
"    ....................++++........++++....................    ",
"    ....................++++........++++....................    ",
"    ....OOOO....oooooooo....++++++++....oooooooo....OOOO....    ",
"    ....OOOO....oooooooo....++++++++....oooooooo....OOOO....    ",
"    ....OOOO....oooooooo....++++++++....oooooooo....OOOO....    ",
"    ....OOOO....oooooooo....++++++++....oooooooo....OOOO....    ",
"    ....++++........................................++++....    ",
"    ....++++........................................++++....    ",
"    ....++++........................................++++....    ",
"    ....++++........................................++++....    ",
"    ....++++++++++++++++++++++++++++++++++++++++++++++++....    ",
"    ....++++++++++++++++++++++++++++++++++++++++++++++++....    ",
"    ....++++++++++++++++++++++++++++++++++++++++++++++++....    ",
"    ....++++++++++++++++++++++++++++++++++++++++++++++++....    ",
"    ....OOOO........................................OOOO....    ",
"    ....OOOO........................................OOOO....    ",
"    ....OOOO........................................OOOO....    ",
"    ....OOOO........................................OOOO....    "
};
