/* XPM */
static char *_f1297fe96014fb8a4c5f3d3f9af1ac1Sqm2RVHxgTjLULae[] = {
/* columns rows colors chars-per-pixel */
"64 64 6 1 ",
"  c None",
". c #14182E",
"X c #AD2F45",
"o c #F0B541",
"O c #FFEE83",
"+ c #F5FFE8",
/* pixels */
"                                                                ",
"                                                                ",
"                                                                ",
"                                                                ",
"                                                                ",
"                                                                ",
"                                                                ",
"                                                                ",
"        ........                                ........        ",
"        ........                                ........        ",
"        ........                                ........        ",
"        ........                                ........        ",
"    ....OOOO........................................OOOO....    ",
"    ....OOOO........................................OOOO....    ",
"    ....OOOO........................................OOOO....    ",
"    ....OOOO........................................OOOO....    ",
"    ....OOOO............++++........++++............OOOO....    ",
"    ....OOOO............++++........++++............OOOO....    ",
"    ....OOOO............++++........++++............OOOO....    ",
"    ....OOOO............++++........++++............OOOO....    ",
"    ....OOOOOOOOOOOOooooOOOO........OOOOooooOOOOOOOOOOOO....    ",
"    ....OOOOOOOOOOOOooooOOOO........OOOOooooOOOOOOOOOOOO....    ",
"    ....OOOOOOOOOOOOooooOOOO........OOOOooooOOOOOOOOOOOO....    ",
"    ....OOOOOOOOOOOOooooOOOO........OOOOooooOOOOOOOOOOOO....    ",
"    ........................OOOOOOOO........................    ",
"    ........................OOOOOOOO........................    ",
"    ........................OOOOOOOO........................    ",
"    ........................OOOOOOOO........................    ",
"    ........................................................    ",
"    ........................................................    ",
"    ........................................................    ",
"    ........................................................    ",
"    ....oooo........................................oooo....    ",
"    ....oooo........................................oooo....    ",
"    ....oooo........................................oooo....    ",
"    ....oooo........................................oooo....    ",
"    ....oooo........................................oooo....    ",
"    ....oooo........................................oooo....    ",
"    ....oooo........................................oooo....    ",
"    ....oooo........................................oooo....    ",
"    ....oooo........................................oooo....    ",
"    ....oooo........................................oooo....    ",
"    ....oooo........................................oooo....    ",
"    ....oooo........................................oooo....    ",
"    ....oooo........................................oooo....    ",
"    ....oooo........................................oooo....    ",
"    ....oooo........................................oooo....    ",
"    ....oooo........................................oooo....    ",
"    ....OOOO....XXXXXXXXXXXXXXXXXXXXXXXXXXXXXXXX....OOOO....    ",
"    ....OOOO....XXXXXXXXXXXXXXXXXXXXXXXXXXXXXXXX....OOOO....    ",
"    ....OOOO....XXXXXXXXXXXXXXXXXXXXXXXXXXXXXXXX....OOOO....    ",
"    ....OOOO....XXXXXXXXXXXXXXXXXXXXXXXXXXXXXXXX....OOOO....    ",
"    ....OOOO....XXXXXXXXXXXXXXXXXXXXXXXXXXXXXXXX....OOOO....    ",
"    ....OOOO....XXXXXXXXXXXXXXXXXXXXXXXXXXXXXXXX....OOOO....    ",
"    ....OOOO....XXXXXXXXXXXXXXXXXXXXXXXXXXXXXXXX....OOOO....    ",
"    ....OOOO....XXXXXXXXXXXXXXXXXXXXXXXXXXXXXXXX....OOOO....    ",
"    ....OOOO........................................OOOO....    ",
"    ....OOOO........................................OOOO....    ",
"    ....OOOO........................................OOOO....    ",
"    ....OOOO........................................OOOO....    ",
"    ....OOOOOOOOOOOOOOOOOOOOOOOOOOOOOOOOOOOOOOOOOOOOOOOO....    ",
"    ....OOOOOOOOOOOOOOOOOOOOOOOOOOOOOOOOOOOOOOOOOOOOOOOO....    ",
"    ....OOOOOOOOOOOOOOOOOOOOOOOOOOOOOOOOOOOOOOOOOOOOOOOO....    ",
"    ....OOOOOOOOOOOOOOOOOOOOOOOOOOOOOOOOOOOOOOOOOOOOOOOO....    "
};
