/* XPM */
static char *_79927404187482be4c9b6604729ec91c4gQ8ynsvUO9kM2y[] = {
/* columns rows colors chars-per-pixel */
"64 64 4 1 ",
"  c #C8D45D",
". c #14182E",
"X c #FF8933",
"o c #FFEE83",
/* pixels */
"                                                                ",
"                                                                ",
"                                                                ",
"                                                                ",
"                                                                ",
"                                                                ",
"                                                                ",
"                                                                ",
"                                                                ",
"                                                                ",
"                                                                ",
"                                                                ",
"                                                                ",
"                                                                ",
"                                                                ",
"                                                                ",
"                      ....................                      ",
"                      ....................                      ",
"                    ........................                    ",
"                    ........................                    ",
"                  ....oooooooooooooooooooo....                  ",
"                  ....oooooooooooooooooooo....                  ",
"                ....oooooooooooooooooooooooo....                ",
"                ....oooooooooooooooooooooooo....                ",
"                ....oooooooooooooooooooooooo....                ",
"                ....oooooooooooooooooooooooo....                ",
"                ....oooooooooooooooooooooooo....                ",
"                ....oooooooooooooooooooooooo....                ",
"                ....oooooooooooooooooooooooo....                ",
"                ....oooooooooooooooooooooooo....                ",
"                ....oooooooooooooooooooooooo....                ",
"                ....oooooooooooooooooooooooo....                ",
"                ....oooooooooooooooooooooooo....                ",
"                ....oooooooooooooooooooooooo....                ",
"                ....oooooooooooooooooooooooo....                ",
"                ....oooooooooooooooooooooooo....                ",
"                ....oooooooooooooooooooooooo....                ",
"                ....oooooooooooooooooooooooo....                ",
"                ....XXXXXXXXXXXXXXXXXXXXXXXX....                ",
"                ....XXXXXXXXXXXXXXXXXXXXXXXX....                ",
"                ....XXXXXXXXXXXXXXXXXXXXXXXX....                ",
"                ....XXXXXXXXXXXXXXXXXXXXXXXX....                ",
"                  ....XXXXXXXXXXXXXXXXXXXX....                  ",
"                  ....XXXXXXXXXXXXXXXXXXXX....                  ",
"                    ........................                    ",
"                    ........................                    ",
"                      ....................                      ",
"                      ....................                      ",
"                                                                ",
"                                                                ",
"                                                                ",
"                                                                ",
"                                                                ",
"                                                                ",
"                                                                ",
"                                                                ",
"                                                                ",
"                                                                ",
"                                                                ",
"                                                                ",
"                                                                ",
"                                                                ",
"                                                                ",
"                                                                "
};
