/* XPM */
static char *_203b42ab6b94d4cb83afc44eea876daVCPNaICYwbbLGkcI[] = {
/* columns rows colors chars-per-pixel */
"64 64 12 1 ",
"  c #C8D45D",
". c #14182E",
"X c #52333F",
"o c #2C354D",
"O c #404973",
"+ c #8F4D57",
"@ c #BD6A62",
"# c #4C6885",
"$ c #686F99",
"% c #4FA4B8",
"& c #FFC2A1",
"* c #DFE0E8",
/* pixels */
"                    ........................                    ",
"                    ........................                    ",
"                    ........................                    ",
"                    ........................                    ",
"                ....OOOOOOOOOOOOOOOOOOOOOOOO....                ",
"                ....OOOOOOOOOOOOOOOOOOOOOOOO....                ",
"                ....OOOOOOOOOOOOOOOOOOOOOOOO....                ",
"                ....OOOOOOOOOOOOOOOOOOOOOOOO....                ",
"            ....$$$$OOOOOOOOOOOOOOOOOOOOOOOO$$$$....            ",
"            ....$$$$OOOOOOOOOOOOOOOOOOOOOOOO$$$$....            ",
"            ....$$$$OOOOOOOOOOOOOOOOOOOOOOOO$$$$....            ",
"            ....$$$$OOOOOOOOOOOOOOOOOOOOOOOO$$$$....            ",
"            ....$$$$OOOOOOOOOOOOOOOOOOOOOOOO$$$$....            ",
"            ....$$$$OOOOOOOOOOOOOOOOOOOOOOOO$$$$....            ",
"            ....$$$$OOOOOOOOOOOOOOOOOOOOOOOO$$$$....            ",
"            ....$$$$OOOOOOOOOOOOOOOOOOOOOOOO$$$$....            ",
"            ....OOOO$$$$OOOOOOOOOOOOOOOO$$$$OOOO....            ",
"            ....OOOO$$$$OOOOOOOOOOOOOOOO$$$$OOOO....            ",
"            ....OOOO$$$$OOOOOOOOOOOOOOOO$$$$OOOO....            ",
"            ....OOOO$$$$OOOOOOOOOOOOOOOO$$$$OOOO....            ",
"            ....OOOOOOOO&&&&&&&&&&&&&&&&OOOOOOOO....            ",
"            ....OOOOOOOO&&&&&&&&&&&&&&&&OOOOOOOO....            ",
"            ....OOOOOOOO&&&&&&&&&&&&&&&&OOOOOOOO....            ",
"            ....OOOOOOOO&&&&&&&&&&&&&&&&OOOOOOOO....            ",
"        ....&&&&OOOOoooooooo&&&&&&&&ooooooooOOOO&&&&....        ",
"        ....&&&&OOOOoooooooo&&&&&&&&ooooooooOOOO&&&&....        ",
"        ....&&&&OOOOoooooooo&&&&&&&&ooooooooOOOO&&&&....        ",
"        ....&&&&OOOOoooooooo&&&&&&&&ooooooooOOOO&&&&....        ",
"        ....&&&&oooo&&&&....&&&&&&&&....&&&&oooo&&&&....        ",
"        ....&&&&oooo&&&&....&&&&&&&&....&&&&oooo&&&&....        ",
"        ....&&&&oooo&&&&....&&&&&&&&....&&&&oooo&&&&....        ",
"        ....&&&&oooo&&&&....&&&&&&&&....&&&&oooo&&&&....        ",
"            ....OOOO&&&&....@@@@@@@@....&&&&OOOO....            ",
"            ....OOOO&&&&....@@@@@@@@....&&&&OOOO....            ",
"            ....OOOO&&&&....@@@@@@@@....&&&&OOOO....            ",
"            ....OOOO&&&&....@@@@@@@@....&&&&OOOO....            ",
"            ....OOOO@@@@&&&&&&&&&&&&&&&&@@@@OOOO....            ",
"            ....OOOO@@@@&&&&&&&&&&&&&&&&@@@@OOOO....            ",
"            ....OOOO@@@@&&&&&&&&&&&&&&&&@@@@OOOO....            ",
"            ....OOOO@@@@&&&&&&&&&&&&&&&&@@@@OOOO....            ",
"        ....&&&&****XXXX++++@@@@@@@@++++XXXX****&&&&....        ",
"        ....&&&&****XXXX++++@@@@@@@@++++XXXX****&&&&....        ",
"        ....&&&&****XXXX++++@@@@@@@@++++XXXX****&&&&....        ",
"        ....&&&&****XXXX++++@@@@@@@@++++XXXX****&&&&....        ",
"    ....&&&&@@@@....XXXX++++********++++XXXX....@@@@&&&&....    ",
"    ....&&&&@@@@....XXXX++++********++++XXXX....@@@@&&&&....    ",
"    ....&&&&@@@@....XXXX++++********++++XXXX....@@@@&&&&....    ",
"    ....&&&&@@@@....XXXX++++********++++XXXX....@@@@&&&&....    ",
"    ....&&&&&&&&....++++++++********++++++++....&&&&&&&&....    ",
"    ....&&&&&&&&....++++++++********++++++++....&&&&&&&&....    ",
"    ....&&&&&&&&....++++++++********++++++++....&&&&&&&&....    ",
"    ....&&&&&&&&....++++++++********++++++++....&&&&&&&&....    ",
"        ................####%%%%%%%%####................        ",
"        ................####%%%%%%%%####................        ",
"        ................####%%%%%%%%####................        ",
"        ................####%%%%%%%%####................        ",
"                ....@@@@@@@@........@@@@@@@@....                ",
"                ....@@@@@@@@........@@@@@@@@....                ",
"                ....@@@@@@@@........@@@@@@@@....                ",
"                ....@@@@@@@@........@@@@@@@@....                ",
"                    ........        ........                    ",
"                    ........        ........                    ",
"                    ........        ........                    ",
"                    ........        ........                    "
};
