/* XPM */
static char *ed3bcdfbbe624eefe7c71fca7b0968d28cguSolhmiHWaoDI[] = {
/* columns rows colors chars-per-pixel */
"64 64 6 1 ",
"  c #C8D45D",
". c #14182E",
"X c #AD2F45",
"o c #686F99",
"O c #A3A7C2",
"+ c #DFE0E8",
/* pixels */
"                    ........................                    ",
"                    ........................                    ",
"                    ........................                    ",
"                    ........................                    ",
"                ....OOOO++++++++++++++++OOOO....                ",
"                ....OOOO++++++++++++++++OOOO....                ",
"                ....OOOO++++++++++++++++OOOO....                ",
"                ....OOOO++++++++++++++++OOOO....                ",
"            ....OOOO++++++++++++++++++++++++OOOO....            ",
"            ....OOOO++++++++++++++++++++++++OOOO....            ",
"            ....OOOO++++++++++++++++++++++++OOOO....            ",
"            ....OOOO++++++++++++++++++++++++OOOO....            ",
"            ....OOOO++++++++++++++++++++++++OOOO....            ",
"            ....OOOO++++++++++++++++++++++++OOOO....            ",
"            ....OOOO++++++++++++++++++++++++OOOO....            ",
"            ....OOOO++++++++++++++++++++++++OOOO....            ",
"            ....ooooOOOO++++++++++++++++OOOOoooo....            ",
"            ....ooooOOOO++++++++++++++++OOOOoooo....            ",
"            ....ooooOOOO++++++++++++++++OOOOoooo....            ",
"            ....ooooOOOO++++++++++++++++OOOOoooo....            ",
"            ....OOOO....OOOO++++++++OOOO....OOOO....            ",
"            ....OOOO....OOOO++++++++OOOO....OOOO....            ",
"            ....OOOO....OOOO++++++++OOOO....OOOO....            ",
"            ....OOOO....OOOO++++++++OOOO....OOOO....            ",
"            ....OOOO........OOOOOOOO........OOOO....            ",
"            ....OOOO........OOOOOOOO........OOOO....            ",
"            ....OOOO........OOOOOOOO........OOOO....            ",
"            ....OOOO........OOOOOOOO........OOOO....            ",
"            ....OOOO....XXXX++++++++XXXX....OOOO....            ",
"            ....OOOO....XXXX++++++++XXXX....OOOO....            ",
"            ....OOOO....XXXX++++++++XXXX....OOOO....            ",
"            ....OOOO....XXXX++++++++XXXX....OOOO....            ",
"                ....OOOO++++oooooooo++++OOOO....                ",
"                ....OOOO++++oooooooo++++OOOO....                ",
"                ....OOOO++++oooooooo++++OOOO....                ",
"                ....OOOO++++oooooooo++++OOOO....                ",
"            ........++++....++++++++....++++........            ",
"            ........++++....++++++++....++++........            ",
"            ........++++....++++++++....++++........            ",
"            ........++++....++++++++....++++........            ",
"        ....++++++++........................++++++++....        ",
"        ....++++++++........................++++++++....        ",
"        ....++++++++........................++++++++....        ",
"        ....++++++++........................++++++++....        ",
"    ....++++OOOO....ooooOOOO++++++++OOOOoooo....OOOO++++....    ",
"    ....++++OOOO....ooooOOOO++++++++OOOOoooo....OOOO++++....    ",
"    ....++++OOOO....ooooOOOO++++++++OOOOoooo....OOOO++++....    ",
"    ....++++OOOO....ooooOOOO++++++++OOOOoooo....OOOO++++....    ",
"    ....++++++++....OOOO++++oooooooo++++OOOO....++++++++....    ",
"    ....++++++++....OOOO++++oooooooo++++OOOO....++++++++....    ",
"    ....++++++++....OOOO++++oooooooo++++OOOO....++++++++....    ",
"    ....++++++++....OOOO++++oooooooo++++OOOO....++++++++....    ",
"        ................ooooOOOOOOOOoooo................        ",
"        ................ooooOOOOOOOOoooo................        ",
"        ................ooooOOOOOOOOoooo................        ",
"        ................ooooOOOOOOOOoooo................        ",
"                ....OOOOOOOO........OOOOOOOO....                ",
"                ....OOOOOOOO........OOOOOOOO....                ",
"                ....OOOOOOOO........OOOOOOOO....                ",
"                ....OOOOOOOO........OOOOOOOO....                ",
"                    ........        ........                    ",
"                    ........        ........                    ",
"                    ........        ........                    ",
"                    ........        ........                    "
};
