/* XPM */
static char *_481bdf496214345fbede9637191fa84o2jlCL388VWflo8y[] = {
/* columns rows colors chars-per-pixel */
"64 64 5 1 ",
"  c #C8D45D",
". c #181425",
"X c #404973",
"o c #686F99",
"O c #A3A7C2",
/* pixels */
"                 ..............................                 ",
"                 ..............................                 ",
"                 ..............................                 ",
"                 ..............................                 ",
"             ....ooooOOOOOOOOOOOOOOOOOOOOOOoooo....             ",
"             ....ooooOOOOOOOOOOOOOOOOOOOOOOoooo....             ",
"             ....ooooOOOOOOOOOOOOOOOOOOOOOOoooo....             ",
"             ....ooooOOOOOOOOOOOOOOOOOOOOOOoooo....             ",
"             ....ooooOOOOOOOOOOOOOOOOOOOOOOoooo....             ",
"         ....ooooOOOOOOOOOOOOOOOOOOOOOOOOOOOOOOoooo....         ",
"         ....ooooOOOOOOOOOOOOOOOOOOOOOOOOOOOOOOoooo....         ",
"         ....ooooOOOOOOOOOOOOOOOOOOOOOOOOOOOOOOoooo....         ",
"         ....ooooOOOOOOOOOOOOOOOOOOOOOOOOOOOOOOoooo....         ",
"    .....ooooOOOOOOOOOOOOOOOOOOOOOOOOOOOOOOOOOOOOOOoooo.....    ",
"    .....ooooOOOOOOOOOOOOOOOOOOOOOOOOOOOOOOOOOOOOOOoooo.....    ",
"    .....ooooOOOOOOOOOOOOOOOOOOOOOOOOOOOOOOOOOOOOOOoooo.....    ",
"    .....ooooOOOOOOOOOOOOOOOOOOOOOOOOOOOOOOOOOOOOOOoooo.....    ",
"....oooooOOOOOOOOOOOOOOOOOOOOOOOOOOOOOOOOOOOOOOOOOOOOOOooooo....",
"....oooooOOOOOOOOOOOOOOOOOOOOOOOOOOOOOOOOOOOOOOOOOOOOOOooooo....",
"....oooooOOOOOOOOOOOOOOOOOOOOOOOOOOOOOOOOOOOOOOOOOOOOOOooooo....",
"....oooooOOOOOOOOOOOOOOOOOOOOOOOOOOOOOOOOOOOOOOOOOOOOOOooooo....",
"....oooooOOOOOOOOOOOOOOOOOOOOOOOOOOOOOOOOOOOOOOOOOOOOOOooooo....",
"....oooooOOOOOOOOOOOOOOOOOOOOOOOOOOOOOOOOOOOOOOOOOOOOOOooooo....",
"....oooooOOOOOOOOOOOOOOOOOOOOOOOOOOOOOOOOOOOOOOOOOOOOOOooooo....",
"....oooooOOOOOOOOOOOOOOOOOOOOOOOOOOOOOOOOOOOOOOOOOOOOOOooooo....",
"....oooooOOOOOOOOOOOOOOOOOOOOOOOOOOOOOOOOOOOOOOOOOOOOOOooooo....",
"....XXXXXooooOOOOOOOOOOOOOOOOOOOOOOOOOOOOOOOOOOOOOOooooXXXXX....",
"....XXXXXooooOOOOOOOOOOOOOOOOOOOOOOOOOOOOOOOOOOOOOOooooXXXXX....",
"....XXXXXooooOOOOOOOOOOOOOOOOOOOOOOOOOOOOOOOOOOOOOOooooXXXXX....",
"....XXXXXooooOOOOOOOOOOOOOOOOOOOOOOOOOOOOOOOOOOOOOOooooXXXXX....",
"....XXXXXXXXXooooOOOOOOOOOOOOOOOOOOOOOOOOOOOOOOooooXXXXXXXXX....",
"....XXXXXXXXXooooOOOOOOOOOOOOOOOOOOOOOOOOOOOOOOooooXXXXXXXXX....",
"....XXXXXXXXXooooOOOOOOOOOOOOOOOOOOOOOOOOOOOOOOooooXXXXXXXXX....",
"....XXXXXXXXXooooOOOOOOOOOOOOOOOOOOOOOOOOOOOOOOooooXXXXXXXXX....",
"....XXXXXXXXXXXXXooooOOOOOOOOOOOOOOOOOOOOOOooooXXXXXXXXXXXXX....",
"....XXXXXXXXXXXXXooooOOOOOOOOOOOOOOOOOOOOOOooooXXXXXXXXXXXXX....",
"....XXXXXXXXXXXXXooooOOOOOOOOOOOOOOOOOOOOOOooooXXXXXXXXXXXXX....",
"....XXXXXXXXXXXXXooooOOOOOOOOOOOOOOOOOOOOOOooooXXXXXXXXXXXXX....",
"....XXXXXXXXXXXXXXXXXooooooooooooooooooooooXXXXXXXXXXXXXXXXX....",
"....XXXXXXXXXXXXXXXXXooooooooooooooooooooooXXXXXXXXXXXXXXXXX....",
"....XXXXXXXXXXXXXXXXXooooooooooooooooooooooXXXXXXXXXXXXXXXXX....",
"....XXXXXXXXXXXXXXXXXooooooooooooooooooooooXXXXXXXXXXXXXXXXX....",
"....XXXXXXXXXXXXXXXXXooooooooooooooooooooooXXXXXXXXXXXXXXXXX....",
"....XXXXXXXXXXXXXXXXXooooooooooooooooooooooXXXXXXXXXXXXXXXXX....",
"....XXXXXXXXXXXXXXXXXooooooooooooooooooooooXXXXXXXXXXXXXXXXX....",
"....XXXXXXXXXXXXXXXXXooooooooooooooooooooooXXXXXXXXXXXXXXXXX....",
"....XXXXXXXXXXXXXXXXXooooooooooooooooooooooXXXXXXXXXXXXXXXXX....",
"    .....XXXXXXXXXXXXooooooooooooooooooooooXXXXXXXXXXXX.....    ",
"    .....XXXXXXXXXXXXooooooooooooooooooooooXXXXXXXXXXXX.....    ",
"    .....XXXXXXXXXXXXooooooooooooooooooooooXXXXXXXXXXXX.....    ",
"    .....XXXXXXXXXXXXooooooooooooooooooooooXXXXXXXXXXXX.....    ",
"         ....XXXXXXXXooooooooooooooooooooooXXXXXXXX....         ",
"         ....XXXXXXXXooooooooooooooooooooooXXXXXXXX....         ",
"         ....XXXXXXXXooooooooooooooooooooooXXXXXXXX....         ",
"         ....XXXXXXXXooooooooooooooooooooooXXXXXXXX....         ",
"             ....XXXXooooooooooooooooooooooXXXX....             ",
"             ....XXXXooooooooooooooooooooooXXXX....             ",
"             ....XXXXooooooooooooooooooooooXXXX....             ",
"             ....XXXXooooooooooooooooooooooXXXX....             ",
"             ....XXXXooooooooooooooooooooooXXXX....             ",
"                 ..............................                 ",
"                 ..............................                 ",
"                 ..............................                 ",
"                 ..............................                 "
};
